<svg width="23" height="20" viewBox="0 0 23 20" fill="none" xmlns="http://www.w3.org/2000/svg">
<path d="M20.005 2.76529C19.5051 2.26509 18.9115 1.86829 18.2581 1.59756C17.6047 1.32684 16.9044 1.1875 16.1972 1.1875C15.49 1.1875 14.7897 1.32684 14.1363 1.59756C13.4829 1.86829 12.8893 2.26509 12.3893 2.76529L11.3517 3.80291L10.3141 2.76529C9.30418 1.75538 7.93445 1.18802 6.50623 1.18802C5.078 1.18802 3.70827 1.75538 2.69836 2.76529C1.68845 3.7752 1.12109 5.14493 1.12109 6.57315C1.12109 8.00138 1.68845 9.37111 2.69836 10.381L3.73598 11.4186L11.3517 19.0344L18.9674 11.4186L20.005 10.381C20.5053 9.88105 20.9021 9.28742 21.1728 8.63406C21.4435 7.98069 21.5828 7.28039 21.5828 6.57315C21.5828 5.86592 21.4435 5.16562 21.1728 4.51225C20.9021 3.85889 20.5053 3.26526 20.005 2.76529Z" stroke="#979797" stroke-width="1.5" stroke-linecap="round" stroke-linejoin="round"/>
</svg>
