<svg width="27" height="26" viewBox="0 0 27 26" fill="none" xmlns="http://www.w3.org/2000/svg">
<ellipse cx="13.572" cy="12.8571" rx="12.8571" ry="12.8571" fill="#E93740"/>
<path fill-rule="evenodd" clip-rule="evenodd" d="M11.644 10.5842H14.4295V11.9717C14.8308 11.1737 15.8598 10.4567 17.4055 10.4567C20.3688 10.4567 21.0723 12.0452 21.0723 14.9597V20.3574H18.0723V15.6234C18.0723 13.9637 17.671 13.0277 16.6495 13.0277C15.2328 13.0277 14.644 14.0364 14.644 15.6227V20.3574H11.644V10.5842ZM6.49977 20.2299H9.49977V10.4567H6.49977V20.2299ZM9.92952 7.26992C9.92963 7.52138 9.87976 7.77035 9.78281 8.00236C9.68585 8.23438 9.54375 8.44481 9.36477 8.62142C9.00207 8.98189 8.51112 9.18366 7.99977 9.18242C7.48931 9.18208 6.9995 8.98082 6.63627 8.62217C6.45792 8.44496 6.31631 8.23429 6.21952 8.00225C6.12274 7.7702 6.0727 7.52134 6.07227 7.26992C6.07227 6.76217 6.27477 6.27617 6.63702 5.91767C6.99993 5.55854 7.48995 5.3572 8.00052 5.35742C8.51202 5.35742 9.00252 5.55917 9.36477 5.91767C9.72627 6.27617 9.92952 6.76217 9.92952 7.26992Z" fill="white"/>
</svg>
