<svg width="20" height="22" viewBox="0 0 20 22" fill="none" xmlns="http://www.w3.org/2000/svg">
<g clip-path="url(#clip0_241_8579)">
<path d="M17.5 9.25C17.5 15.375 10 20.625 10 20.625C10 20.625 2.5 15.375 2.5 9.25C2.5 7.16142 3.29018 5.15838 4.6967 3.68153C6.10322 2.20469 8.01088 1.375 10 1.375C11.9891 1.375 13.8968 2.20469 15.3033 3.68153C16.7098 5.15838 17.5 7.16142 17.5 9.25Z" stroke="#979797" stroke-width="1.5" stroke-linecap="round" stroke-linejoin="round"/>
<path d="M10 11.875C11.3807 11.875 12.5 10.6997 12.5 9.25C12.5 7.80025 11.3807 6.625 10 6.625C8.61929 6.625 7.5 7.80025 7.5 9.25C7.5 10.6997 8.61929 11.875 10 11.875Z" stroke="#979797" stroke-width="1.5" stroke-linecap="round" stroke-linejoin="round"/>
</g>
<defs>
<clipPath id="clip0_241_8579">
<rect width="20" height="21" fill="white" transform="translate(0 0.5)"/>
</clipPath>
</defs>
</svg>
