<svg width="27" height="26" viewBox="0 0 27 26" fill="none" xmlns="http://www.w3.org/2000/svg">
<ellipse cx="13.2849" cy="12.8571" rx="12.8571" ry="12.8571" fill="#E93740"/>
<path d="M20.7851 7.94981C20.2235 8.21225 19.6278 8.38442 19.0178 8.4606C19.6603 8.0551 20.1411 7.41701 20.3706 6.66525C19.7667 7.04342 19.1058 7.30971 18.4166 7.45259C18.1287 7.12866 17.7807 6.87055 17.3943 6.69426C17.008 6.51797 16.5914 6.42726 16.1704 6.42774C14.471 6.42774 13.093 7.88078 13.093 9.67366C13.093 9.92782 13.1203 10.1758 13.1729 10.4135C10.6152 10.2781 8.34772 8.98577 6.82986 7.02173C6.55618 7.51712 6.41237 8.08038 6.41318 8.65373C6.41278 9.18815 6.53754 9.71439 6.77637 10.1857C7.01521 10.657 7.36072 11.0588 7.78222 11.3554C7.29361 11.339 6.81577 11.1998 6.38844 10.9494C6.38805 10.9629 6.38805 10.9763 6.38805 10.9903C6.38805 12.5625 7.44873 13.8744 8.85633 14.1729C8.40309 14.3023 7.92787 14.3213 7.46665 14.2284C7.85819 15.5177 8.99464 16.4564 10.3413 16.4827C9.25117 17.3851 7.90504 17.8745 6.51935 17.8723C6.27098 17.8723 6.02612 17.8571 5.78516 17.8269C7.19224 18.7805 8.82987 19.2866 10.5024 19.2849C16.1628 19.2849 19.2581 14.3391 19.2581 10.0503C19.2581 9.90974 19.255 9.76941 19.2492 9.6299C19.852 9.17087 20.3721 8.60189 20.7851 7.94981Z" fill="white"/>
</svg>
