<svg width="27" height="26" viewBox="0 0 27 26" fill="none" xmlns="http://www.w3.org/2000/svg">
<circle cx="13.7146" cy="12.8571" r="12.8571" fill="#E93740"/>
<path d="M20.9018 9.1423C20.8164 8.82428 20.649 8.53427 20.4163 8.30129C20.1836 8.0683 19.8938 7.90052 19.5759 7.81473C18.4057 7.5 13.7148 7.5 13.7148 7.5C13.7148 7.5 9.024 7.5 7.85379 7.81306C7.53575 7.89857 7.2458 8.06626 7.01307 8.29929C6.78034 8.53231 6.61301 8.82247 6.5279 9.14063C6.21484 10.3125 6.21484 12.7567 6.21484 12.7567C6.21484 12.7567 6.21484 15.2009 6.5279 16.3711C6.70033 17.0173 7.20926 17.5262 7.85379 17.6987C9.024 18.0134 13.7148 18.0134 13.7148 18.0134C13.7148 18.0134 18.4057 18.0134 19.5759 17.6987C20.2221 17.5262 20.7294 17.0173 20.9018 16.3711C21.2148 15.2009 21.2148 12.7567 21.2148 12.7567C21.2148 12.7567 21.2148 10.3125 20.9018 9.1423ZM12.2249 15V10.5134L16.1088 12.74L12.2249 15Z" fill="white"/>
</svg>
