<svg width="26" height="27" viewBox="0 0 26 27" fill="none" xmlns="http://www.w3.org/2000/svg">
<ellipse cx="12.8571" cy="13.572" rx="12.8571" ry="12.8571" fill="#E93740"/>
<path d="M12.8554 11.0712C11.4783 11.0712 10.3544 12.1951 10.3544 13.5723C10.3544 14.9494 11.4783 16.0733 12.8554 16.0733C14.2326 16.0733 15.3564 14.9494 15.3564 13.5723C15.3564 12.1951 14.2326 11.0712 12.8554 11.0712ZM20.3566 13.5723C20.3566 12.5366 20.366 11.5102 20.3078 10.4764C20.2496 9.27561 19.9757 8.20989 19.0976 7.3318C18.2177 6.45183 17.1539 6.17977 15.9531 6.12161C14.9174 6.06344 13.8911 6.07282 12.8573 6.07282C11.8216 6.07282 10.7953 6.06344 9.7615 6.12161C8.56071 6.17977 7.49501 6.45371 6.61693 7.3318C5.73698 8.21177 5.46493 9.27561 5.40676 10.4764C5.3486 11.5121 5.35798 12.5384 5.35798 13.5723C5.35798 14.6061 5.3486 15.6343 5.40676 16.6681C5.46493 17.8689 5.73886 18.9346 6.61693 19.8127C7.49689 20.6927 8.56071 20.9648 9.7615 21.0229C10.7972 21.0811 11.8235 21.0717 12.8573 21.0717C13.893 21.0717 14.9193 21.0811 15.9531 21.0229C17.1539 20.9648 18.2196 20.6908 19.0976 19.8127C19.9776 18.9328 20.2496 17.8689 20.3078 16.6681C20.3678 15.6343 20.3566 14.608 20.3566 13.5723ZM12.8554 17.4205C10.7259 17.4205 9.00725 15.7018 9.00725 13.5723C9.00725 11.4427 10.7259 9.72404 12.8554 9.72404C14.9849 9.72404 16.7036 11.4427 16.7036 13.5723C16.7036 15.7018 14.9849 17.4205 12.8554 17.4205ZM16.8612 10.4652C16.364 10.4652 15.9624 10.0636 15.9624 9.56643C15.9624 9.06922 16.364 8.6677 16.8612 8.6677C17.3584 8.6677 17.7599 9.06922 17.7599 9.56643C17.76 9.6845 17.7369 9.80143 17.6918 9.91054C17.6467 10.0196 17.5805 10.1188 17.497 10.2023C17.4135 10.2857 17.3144 10.3519 17.2053 10.3971C17.0962 10.4422 16.9792 10.4653 16.8612 10.4652Z" fill="white"/>
</svg>
