<svg width="25" height="25" viewBox="0 0 25 25" fill="none" xmlns="http://www.w3.org/2000/svg">
<path d="M12.3262 13.2051C12.8785 13.2051 13.3262 12.7574 13.3262 12.2051C13.3262 11.6528 12.8785 11.2051 12.3262 11.2051C11.7739 11.2051 11.3262 11.6528 11.3262 12.2051C11.3262 12.7574 11.7739 13.2051 12.3262 13.2051Z" stroke="#F68235" stroke-width="2" stroke-linecap="round" stroke-linejoin="round"/>
<path d="M19.3262 13.2051C19.8785 13.2051 20.3262 12.7574 20.3262 12.2051C20.3262 11.6528 19.8785 11.2051 19.3262 11.2051C18.7739 11.2051 18.3262 11.6528 18.3262 12.2051C18.3262 12.7574 18.7739 13.2051 19.3262 13.2051Z" stroke="#F68235" stroke-width="2" stroke-linecap="round" stroke-linejoin="round"/>
<path d="M5.32617 13.2051C5.87846 13.2051 6.32617 12.7574 6.32617 12.2051C6.32617 11.6528 5.87846 11.2051 5.32617 11.2051C4.77389 11.2051 4.32617 11.6528 4.32617 12.2051C4.32617 12.7574 4.77389 13.2051 5.32617 13.2051Z" stroke="#F68235" stroke-width="2" stroke-linecap="round" stroke-linejoin="round"/>
</svg>
